<svg width="261" height="49" viewBox="0 0 261 49" fill="none" xmlns="http://www.w3.org/2000/svg">
<path fill-rule="evenodd" clip-rule="evenodd" d="M122.096 11.2701C122.505 11.2701 122.913 11.5968 122.913 12.0052V12.0868V32.0142C122.913 34.8727 121.28 38.0578 118.666 39.6095C117.114 40.6712 115.154 41.2429 113.113 41.1613C112.296 41.0796 111.397 40.9979 110.581 40.7529C110.172 40.5896 109.927 40.1812 110.009 39.6912V39.6095L110.989 37.2411C111.397 36.2611 112.296 36.5877 112.296 36.5877C112.623 36.6694 112.949 36.7511 113.276 36.7511C115.644 36.9144 117.686 35.1994 118.339 33.1576C118.421 32.9126 118.421 32.6676 118.421 32.4226V32.1776V28.0941C116.869 29.8092 114.664 30.7892 112.296 30.7892C107.151 30.7892 103.067 26.5424 103.067 21.0705C103.067 15.6803 107.151 11.4335 112.296 11.4335C114.664 11.4335 116.706 12.3319 118.258 13.8836L118.421 14.1286V12.3319C118.421 11.9235 118.748 11.5152 119.156 11.5152H119.238H122.096V11.2701ZM136.062 11.2701C141.37 11.2701 145.699 15.5986 145.699 20.9888C145.699 23.5206 144.719 25.9707 142.84 27.8491C141.044 29.7275 138.593 30.7075 136.062 30.7075C133.53 30.7075 131.08 29.6458 129.283 27.8491C127.486 25.9707 126.425 23.6023 126.425 20.9888C126.425 15.6803 130.753 11.2701 136.062 11.2701ZM152.722 11.2701C153.212 11.2701 153.539 11.6785 153.539 12.0868V19.8455L159.991 11.5152C160.154 11.2701 160.399 11.1885 160.644 11.1885H163.584C164.319 11.1885 164.728 12.0052 164.238 12.5769L157.868 20.8255L164.319 29.0741C164.728 29.6458 164.319 30.4625 163.666 30.4625H160.726C160.481 30.4625 160.236 30.3809 160.073 30.1358L153.539 21.7239V29.5642C153.539 30.0542 153.131 30.3809 152.722 30.3809H150.027C149.537 30.3809 149.211 29.9725 149.211 29.5642V12.1685C149.211 11.6785 149.619 11.3518 150.027 11.3518H152.722V11.2701ZM183.675 11.2701C188.984 11.2701 193.312 15.5986 193.312 20.9072C193.312 26.134 189.147 30.3809 183.92 30.5442H183.675H176.652C176.243 30.5442 175.835 30.2175 175.835 29.8092V29.7275V12.0868C175.835 11.6785 176.162 11.2701 176.57 11.2701H176.652H183.675ZM171.425 11.2701C171.915 11.2701 172.241 11.6785 172.241 12.0868V29.6458C172.241 30.1358 171.833 30.4625 171.425 30.4625H168.73C168.24 30.4625 167.913 30.0542 167.913 29.6458V12.0868C167.913 11.5968 168.321 11.2701 168.73 11.2701H171.425ZM79.3829 11.2701C79.873 11.2701 80.1996 11.6785 80.1996 12.0868V29.6458C80.1996 30.1358 79.7913 30.4625 79.3829 30.4625H76.6878C76.1978 30.4625 75.8711 30.0542 75.8711 29.6458V12.0868C75.8711 11.5968 76.2795 11.2701 76.6878 11.2701H79.3829ZM63.539 11.2701C64.029 11.2701 64.3557 11.6785 64.3557 12.0868V24.2556C64.3557 25.5623 65.1724 26.379 66.3158 26.379H71.5427C72.0327 26.379 72.3594 26.7874 72.3594 27.1957V29.5642C72.3594 30.0542 71.951 30.3809 71.5427 30.3809C70.8076 30.3809 65.2541 30.3809 65.2541 30.3809C61.824 30.2992 59.9456 27.3591 59.9456 24.5006V12.1685C59.9456 11.6785 60.3539 11.3518 60.7623 11.3518H63.539V11.2701ZM202.132 11.2701H202.459C204.583 11.4335 206.543 12.1685 207.441 12.5769C207.686 12.6585 207.849 12.9035 207.931 13.1485C208.013 13.3936 208.013 13.6386 207.849 13.8836L206.788 15.6803C206.543 16.0887 206.053 16.252 205.644 16.0887C204.828 15.6803 203.521 15.1903 202.214 15.027C201.479 14.9453 200.744 15.1086 200.254 15.517C199.927 15.8436 199.682 16.1703 199.682 16.6603V16.742C199.682 17.7221 201.479 18.2937 203.358 18.9471H203.439C205.644 19.6821 209.401 20.9072 209.319 24.7456V24.8273C209.238 26.624 208.503 28.0941 207.196 29.1558C205.971 30.0542 204.338 30.5442 202.623 30.5442C202.541 30.5442 202.459 30.5442 202.378 30.5442C202.133 30.5442 201.887 30.5442 201.642 30.4625C198.702 30.2175 196.742 28.9925 195.844 28.3391C195.681 28.1758 195.517 28.0124 195.517 27.7674C195.517 27.5224 195.517 27.2774 195.681 27.1141L196.987 25.4807C197.314 25.154 197.804 24.9907 198.212 25.3173C199.029 25.889 200.499 26.5424 202.704 26.7874C203.521 26.8691 204.338 26.624 204.828 26.2157C205.154 25.889 205.399 25.4807 205.399 24.9907V24.909C205.399 23.9289 204.174 23.3573 201.806 22.6222C199.356 21.8872 195.681 20.7438 195.762 16.9054V16.8237C195.762 15.1903 196.497 13.7202 197.804 12.7402C199.111 11.7602 200.826 11.1885 202.541 11.3518L202.132 11.2701ZM87.2232 11.1885C87.7133 11.1885 88.0399 11.5968 88.0399 12.0052V13.4752C89.4283 11.7602 90.98 11.1885 92.9401 11.1885C94.9002 11.1885 96.6969 12.0868 97.922 13.4752C99.147 14.7819 99.8004 16.6603 99.8004 18.7838V29.6458C99.8004 30.1358 99.392 30.4625 98.9837 30.4625H96.2886C95.7986 30.4625 95.4719 30.0542 95.4719 29.6458V19.1104C95.4719 16.742 94.2468 15.272 92.2051 15.272C89.6733 15.272 88.1216 17.477 87.9583 19.7638V29.7275C87.9583 30.2175 87.5499 30.5442 87.1416 30.5442H84.4465C83.9564 30.5442 83.6298 30.1358 83.6298 29.7275V12.0868C83.6298 11.5968 84.0381 11.2701 84.4465 11.2701L87.2232 11.1885ZM135.98 15.272C135.082 15.272 134.183 15.517 133.448 15.9253C131.57 16.9054 130.263 18.8654 130.263 21.0705C130.263 24.2556 132.877 26.8691 136.062 26.8691C139.247 26.8691 141.86 24.2556 141.86 21.0705C141.86 20.3355 141.697 19.6821 141.534 19.1104C141.534 19.2738 141.534 19.3554 141.534 19.5188C141.534 20.9072 140.39 21.9689 139.083 21.9689C137.695 21.9689 136.633 20.8255 136.633 19.5188C136.633 18.1304 137.777 17.0687 139.083 17.0687C139.737 17.0687 140.309 17.3137 140.717 17.7221C139.737 16.3337 138.103 15.4353 136.307 15.4353C136.143 15.272 136.062 15.272 135.98 15.272ZM183.348 15.027H180.082V26.7874H183.348C186.534 26.7874 189.229 24.174 189.229 20.9072C189.229 17.6404 186.615 15.027 183.348 15.027ZM113.113 15.1086C110.009 15.1086 107.559 17.7221 107.559 20.9072C107.559 24.0923 110.091 26.7057 113.113 26.7057C115.971 26.7057 118.094 24.5823 118.421 22.4589V22.2956V20.8255C118.013 21.4789 117.196 21.8872 116.379 21.8872C114.991 21.8872 113.929 20.7438 113.929 19.4371C113.929 18.0487 115.073 16.987 116.379 16.987C116.706 16.987 117.033 17.0687 117.278 17.1504C116.298 15.9253 114.746 15.1086 113.113 15.1086Z" fill="#00CDC4"/>
<path fill-rule="evenodd" clip-rule="evenodd" d="M11.2704 0H33.7296C39.9365 0 45 5.06352 45 11.2704V33.7296C45 39.9365 39.9365 45 33.7296 45H11.2704C5.06352 45 0 39.9365 0 33.7296V11.1887C0 4.98185 5.06352 0 11.2704 0Z" fill="#00CDC4"/>
<path fill-rule="evenodd" clip-rule="evenodd" d="M19.9274 14.1285C19.8458 14.1285 19.6824 14.1285 19.6008 14.0468C19.1924 13.8835 19.0291 13.3935 19.1924 12.9851L22.2959 6.04321C22.4592 5.63486 22.9492 5.47152 23.3576 5.63486C23.7659 5.7982 23.9293 6.28822 23.7659 6.69656L20.5808 13.6385C20.4991 13.9652 20.1725 14.1285 19.9274 14.1285Z" fill="#FF4560"/>
<path fill-rule="evenodd" clip-rule="evenodd" d="M22.4592 14.2921C22.3775 14.2921 22.2142 14.2921 22.1325 14.2104C21.7242 14.047 21.5608 13.557 21.7242 13.1487L24.5009 6.94178C24.6643 6.61511 25.0726 6.3701 25.481 6.53344C25.8893 6.69678 26.0527 7.18679 25.8893 7.59514L23.1942 13.802C23.0309 14.1287 22.7042 14.2921 22.4592 14.2921Z" fill="#FF4560"/>
<path fill-rule="evenodd" clip-rule="evenodd" d="M24.6643 14.9455C24.5826 14.9455 24.4192 14.9455 24.3376 14.8638C23.9292 14.7004 23.7659 14.2104 23.9292 13.8021L26.461 8.0852C26.6243 7.67685 27.1143 7.51351 27.5227 7.67685C27.931 7.84019 28.0944 8.33021 27.931 8.73856L25.3993 14.4554C25.2359 14.7821 24.9909 14.9455 24.6643 14.9455Z" fill="#FF4560"/>
<path fill-rule="evenodd" clip-rule="evenodd" d="M34.6279 20.8254C34.3829 20.8254 34.2196 20.7438 33.9746 20.5804C33.6479 20.2537 33.6479 19.6821 33.9746 19.2737L38.5481 14.4552C38.8747 14.1285 39.4464 14.0468 39.7731 14.4552C40.0998 14.7819 40.0998 15.3536 39.7731 15.7619L35.2813 20.4987C35.1179 20.7438 34.8729 20.8254 34.6279 20.8254Z" fill="#FFC843"/>
<path fill-rule="evenodd" clip-rule="evenodd" d="M11.3521 21.152C11.1071 21.152 10.8621 21.0704 10.6171 20.8254L4.81852 13.3934C4.49184 12.9851 4.57351 12.4134 4.98186 12.1684C5.39021 11.8417 5.96189 11.9234 6.2069 12.3317L12.0055 19.7637C12.3321 20.172 12.2505 20.7437 11.8421 20.9887C11.7604 21.0704 11.5971 21.152 11.3521 21.152Z" fill="#FFC843"/>
<path fill-rule="evenodd" clip-rule="evenodd" d="M19.5191 29.6461C19.2741 29.3194 18.784 29.1561 18.4574 29.4828C18.1307 29.7278 18.049 30.2178 18.294 30.6261L23.6842 38.4664L25.0726 37.7314L19.5191 29.6461Z" fill="#FFC843"/>
<path fill-rule="evenodd" clip-rule="evenodd" d="M24.9093 39.1195C24.9909 39.1195 24.9909 39.1195 24.9093 39.1195C25.3176 38.7928 25.3993 38.3028 25.1543 37.9761L24.9093 37.6494L23.5209 38.3844L23.8476 38.8745C24.1742 39.2011 24.5826 39.2828 24.9093 39.1195Z" fill="#561B00"/>
<path fill-rule="evenodd" clip-rule="evenodd" d="M22.2958 29.7281C22.0508 29.4014 21.5608 29.2381 21.2341 29.5648C20.9074 29.8098 20.8257 30.2998 21.0707 30.7082L26.4609 38.5485L27.8493 37.8134L22.2958 29.7281Z" fill="#FFC843"/>
<path fill-rule="evenodd" clip-rule="evenodd" d="M27.7677 39.2015C28.1761 38.8748 28.2577 38.3848 28.0127 38.0581L27.7677 37.7314L26.3793 38.4665L26.706 38.9565C26.951 39.2832 27.3594 39.3648 27.7677 39.2015Z" fill="#561B00"/>
<path fill-rule="evenodd" clip-rule="evenodd" d="M32.1779 31.851C32.4229 31.6876 32.5862 31.5243 32.7496 31.2793H12.0055C12.1688 31.4426 12.4138 31.606 12.5772 31.851C15.2723 34.1377 18.539 35.2811 22.3775 35.2811C26.216 35.2811 29.4828 34.1377 32.1779 31.851Z" fill="#009EC3"/>
<path fill-rule="evenodd" clip-rule="evenodd" d="M22.3775 11.7607C18.539 11.7607 15.2722 12.9041 12.5771 15.1909C9.88204 17.4776 8.49365 20.2544 8.49365 23.5212C8.49365 25.8896 9.22868 28.013 10.6987 29.8914C11.0254 30.3814 11.5154 30.7898 11.9238 31.2798H32.6679C32.9946 31.0348 33.2396 30.7081 33.4846 30.3814C35.1996 28.4214 36.098 26.1346 36.098 23.5212C36.098 20.2544 34.7096 17.4776 32.0145 15.1909C29.4828 12.9041 26.216 11.7607 22.3775 11.7607Z" fill="#FFC843"/>
<path fill-rule="evenodd" clip-rule="evenodd" d="M14.7005 12.9856C12.7404 12.9039 11.0254 13.639 9.47366 15.1907C8.0036 16.7424 7.18691 18.6208 7.02357 20.8259C6.9419 23.031 7.51359 24.9094 8.8203 26.5428C10.127 28.1762 11.7604 28.9929 13.8022 28.9929C15.7622 29.0745 17.4773 28.3395 19.029 26.7878C20.4991 25.2361 21.3158 23.3577 21.4791 21.1526C21.6424 18.9475 20.9891 17.0691 19.6824 15.4357C18.294 13.884 16.6606 13.0673 14.7005 12.9856Z" fill="white"/>
<path fill-rule="evenodd" clip-rule="evenodd" d="M14.5372 13.8841C12.8221 13.8841 11.4337 14.5374 10.127 15.8442C8.73863 17.2325 8.08527 18.8659 7.92193 20.9077C7.84026 22.9494 8.33028 24.5828 9.47366 26.0529C10.617 27.4413 12.0054 28.1763 13.8022 28.1763C15.5172 28.2579 17.0689 27.6046 18.3757 26.2162C19.764 24.8278 20.4174 23.1944 20.5807 21.1527C20.6624 19.1109 20.1724 17.4775 19.029 16.0075C17.8856 14.6191 16.4972 13.8841 14.7005 13.8841C14.6188 13.8841 14.5372 13.8841 14.5372 13.8841ZM14.0472 29.8913C13.9655 29.8913 13.8838 29.8913 13.8022 29.8913C11.5971 29.8097 9.71867 28.9113 8.24861 27.1146C6.77856 25.3178 6.1252 23.1944 6.28854 20.826C6.45188 18.3759 7.35024 16.3342 8.98364 14.7008C10.617 12.9857 12.5771 12.169 14.7822 12.2507C16.9873 12.3324 18.8657 13.2307 20.3357 15.0275C21.8058 16.8242 22.4591 18.9476 22.2958 21.316C22.1325 23.7661 21.2341 25.8079 19.6007 27.4412C18.049 29.0746 16.1706 29.8913 14.0472 29.8913Z" fill="#336697"/>
<path fill-rule="evenodd" clip-rule="evenodd" d="M17.2323 19.1105C16.6606 19.1922 16.1706 19.5189 15.8439 19.9272C15.5172 20.4172 15.3539 20.9889 15.4356 21.5606C15.5172 22.1323 15.7623 22.6223 16.2523 23.0307C16.7423 23.3573 17.2323 23.5207 17.8857 23.439C18.4574 23.3573 18.9474 23.0307 19.2741 22.5406C19.6007 22.0506 19.7641 21.4789 19.6824 20.9072C19.6007 20.3356 19.2741 19.8455 18.8657 19.4372C18.3757 19.1105 17.8857 19.0288 17.2323 19.1105Z" fill="black"/>
<path fill-rule="evenodd" clip-rule="evenodd" d="M17.6406 27.359C16.7423 27.359 15.9256 26.624 15.9256 25.644C15.8439 24.6639 16.6606 23.8472 17.559 23.7656L27.1143 23.3572C28.0944 23.2755 28.9111 24.0922 28.9111 25.0723C28.9927 26.0523 28.176 26.869 27.2777 26.9507L17.7223 27.359C17.7223 27.359 17.7223 27.359 17.6406 27.359Z" fill="#F58F02"/>
<path fill-rule="evenodd" clip-rule="evenodd" d="M29.3194 13.2307C27.3593 13.1491 25.6443 13.8841 24.0925 15.4358C22.6225 16.9875 21.8058 18.8659 21.6424 21.071C21.5608 23.2761 22.1325 25.1545 23.4392 26.7879C24.7459 28.4213 26.3793 29.238 28.421 29.238C30.3811 29.3197 32.0962 28.5846 33.6479 27.0329C35.1179 25.4812 35.9346 23.6028 36.098 21.3977C36.1797 19.1926 35.608 17.3142 34.3012 15.6808C32.9129 14.1291 31.2795 13.3124 29.3194 13.2307Z" fill="white"/>
<path fill-rule="evenodd" clip-rule="evenodd" d="M29.156 14.1292C27.441 14.1292 26.0526 14.7826 24.7459 16.0893C23.3575 17.4777 22.7041 19.111 22.5408 21.1528C22.4591 23.1945 22.9491 24.8279 24.0925 26.298C25.2359 27.6864 26.6243 28.4214 28.421 28.4214C30.1361 28.5031 31.6878 27.8497 32.9945 26.4613C34.3829 25.0729 35.0362 23.4395 35.1996 21.3978C35.2812 19.3561 34.7912 17.7227 33.6479 16.2526C32.5045 14.8642 31.1161 14.1292 29.3194 14.1292C29.2377 14.1292 29.156 14.1292 29.156 14.1292ZM28.5843 30.1365C28.5027 30.1365 28.421 30.1365 28.3393 30.1365C26.1342 30.0548 24.2558 29.1564 22.7858 27.3597C21.3157 25.563 20.6624 23.4395 20.8257 21.0711C20.989 18.621 21.8874 16.5793 23.5208 14.9459C25.1542 13.2308 27.1143 12.4141 29.3194 12.4958C31.5244 12.5775 33.4028 13.4758 34.8729 15.2726C36.343 17.0693 36.9963 19.1927 36.833 21.5611C36.6696 24.0112 35.7713 26.053 34.1379 27.6864C32.6678 29.3198 30.7894 30.1365 28.5843 30.1365Z" fill="#336697"/>
<path fill-rule="evenodd" clip-rule="evenodd" d="M18.2124 24.9914C18.539 25.3181 18.539 25.8081 18.2124 26.0531C17.8857 26.3798 17.4773 26.3798 17.1506 26.0531C16.824 25.7264 16.824 25.2364 17.1506 24.9914C17.4773 24.7464 17.8857 24.7464 18.2124 24.9914Z" fill="black"/>
<path fill-rule="evenodd" clip-rule="evenodd" d="M29.8094 22.7859L23.8475 22.7043C23.6025 22.7043 23.3575 22.5409 23.3575 22.2959C23.3575 22.0509 23.4392 21.8059 23.6842 21.7242L29.0744 19.9275C29.3194 19.8458 29.646 20.0092 29.7277 20.2542C29.8094 20.4992 29.646 20.8259 29.401 20.9075L26.9509 21.7242L29.8911 21.8059C30.1361 21.8059 30.3811 22.0509 30.3811 22.2959C30.2994 22.5409 30.0544 22.7859 29.8094 22.7859Z" fill="black"/>
<path d="M127.008 44.148C127.008 44.664 127.416 45.072 127.932 45.072C128.448 45.072 128.856 44.664 128.856 44.148V42.48H130.26C132.144 42.48 133.656 41.472 133.656 39.528V39.504C133.656 37.788 132.444 36.6 130.44 36.6H127.932C127.416 36.6 127.008 37.008 127.008 37.524V44.148ZM128.856 40.836V38.268H130.284C131.208 38.268 131.784 38.712 131.784 39.54V39.564C131.784 40.284 131.244 40.836 130.32 40.836H128.856ZM134.516 44.16C134.516 44.664 134.924 45.072 135.428 45.072C135.932 45.072 136.34 44.664 136.34 44.16V37.08C136.34 36.576 135.932 36.168 135.428 36.168C134.924 36.168 134.516 36.576 134.516 37.08V44.16ZM139.477 45.12C140.365 45.12 140.977 44.796 141.421 44.304V44.316C141.421 44.7 141.769 45.072 142.297 45.072C142.789 45.072 143.185 44.688 143.185 44.196V41.268C143.185 40.404 142.969 39.696 142.489 39.216C142.033 38.76 141.313 38.496 140.317 38.496C139.465 38.496 138.841 38.616 138.265 38.832C137.977 38.94 137.773 39.216 137.773 39.54C137.773 39.96 138.109 40.284 138.529 40.284C138.613 40.284 138.685 40.272 138.793 40.236C139.141 40.128 139.549 40.056 140.053 40.056C140.965 40.056 141.433 40.476 141.433 41.232V41.34C140.977 41.184 140.509 41.076 139.861 41.076C138.337 41.076 137.269 41.724 137.269 43.128V43.152C137.269 44.424 138.265 45.12 139.477 45.12ZM140.029 43.86C139.441 43.86 139.033 43.572 139.033 43.08V43.056C139.033 42.48 139.513 42.168 140.293 42.168C140.737 42.168 141.145 42.264 141.457 42.408V42.732C141.457 43.392 140.881 43.86 140.029 43.86ZM145.569 46.956C146.661 46.956 147.201 46.464 147.741 45.156L149.985 39.768C150.021 39.684 150.069 39.48 150.069 39.336C150.069 38.856 149.673 38.496 149.205 38.496C148.737 38.496 148.473 38.808 148.329 39.192L146.985 42.924L145.593 39.18C145.437 38.748 145.173 38.496 144.717 38.496C144.213 38.496 143.817 38.856 143.817 39.372C143.817 39.492 143.865 39.672 143.913 39.792L146.109 44.88L146.049 45.024C145.881 45.348 145.725 45.408 145.401 45.408C145.269 45.408 145.173 45.384 145.017 45.336C144.945 45.312 144.861 45.288 144.717 45.288C144.345 45.288 143.997 45.588 143.997 46.032C143.997 46.476 144.309 46.692 144.573 46.788C144.873 46.896 145.161 46.956 145.569 46.956ZM156.238 45.108C156.634 45.108 156.946 45.06 157.282 44.928C157.534 44.832 157.75 44.568 157.75 44.244C157.75 43.824 157.402 43.488 156.994 43.488C156.958 43.488 156.838 43.5 156.778 43.5C156.37 43.5 156.19 43.296 156.19 42.876V40.128H156.994C157.426 40.128 157.774 39.78 157.774 39.348C157.774 38.916 157.426 38.568 156.994 38.568H156.19V37.764C156.19 37.26 155.782 36.852 155.278 36.852C154.774 36.852 154.366 37.26 154.366 37.764V38.568H154.306C153.874 38.568 153.526 38.916 153.526 39.348C153.526 39.78 153.874 40.128 154.306 40.128H154.366V43.176C154.366 44.664 155.122 45.108 156.238 45.108ZM161.627 45.144C163.631 45.144 165.119 43.644 165.119 41.796V41.772C165.119 39.924 163.643 38.448 161.651 38.448C159.647 38.448 158.159 39.948 158.159 41.796V41.82C158.159 43.668 159.635 45.144 161.627 45.144ZM161.651 43.572C160.643 43.572 159.959 42.744 159.959 41.796V41.772C159.959 40.824 160.583 40.02 161.627 40.02C162.635 40.02 163.319 40.848 163.319 41.796V41.82C163.319 42.768 162.695 43.572 161.651 43.572ZM172.507 37.08C172.507 36.576 172.099 36.168 171.595 36.168C171.091 36.168 170.683 36.576 170.683 37.08V39.408C170.251 38.892 169.651 38.448 168.679 38.448C167.155 38.448 165.751 39.624 165.751 41.772V41.796C165.751 43.944 167.179 45.12 168.679 45.12C169.627 45.12 170.239 44.676 170.683 44.076V44.16C170.683 44.664 171.091 45.072 171.595 45.072C172.099 45.072 172.507 44.664 172.507 44.16V37.08ZM169.147 39.996C169.999 39.996 170.707 40.704 170.707 41.772V41.796C170.707 42.864 169.999 43.572 169.147 43.572C168.295 43.572 167.575 42.864 167.575 41.796V41.772C167.575 40.692 168.295 39.996 169.147 39.996ZM175.561 45.12C176.449 45.12 177.061 44.796 177.505 44.304V44.316C177.505 44.7 177.853 45.072 178.381 45.072C178.873 45.072 179.269 44.688 179.269 44.196V41.268C179.269 40.404 179.053 39.696 178.573 39.216C178.117 38.76 177.397 38.496 176.401 38.496C175.549 38.496 174.925 38.616 174.349 38.832C174.061 38.94 173.857 39.216 173.857 39.54C173.857 39.96 174.193 40.284 174.613 40.284C174.697 40.284 174.769 40.272 174.877 40.236C175.225 40.128 175.633 40.056 176.137 40.056C177.049 40.056 177.517 40.476 177.517 41.232V41.34C177.061 41.184 176.593 41.076 175.945 41.076C174.421 41.076 173.353 41.724 173.353 43.128V43.152C173.353 44.424 174.349 45.12 175.561 45.12ZM176.113 43.86C175.525 43.86 175.117 43.572 175.117 43.08V43.056C175.117 42.48 175.597 42.168 176.377 42.168C176.821 42.168 177.229 42.264 177.541 42.408V42.732C177.541 43.392 176.965 43.86 176.113 43.86ZM181.653 46.956C182.745 46.956 183.285 46.464 183.825 45.156L186.069 39.768C186.105 39.684 186.153 39.48 186.153 39.336C186.153 38.856 185.757 38.496 185.289 38.496C184.821 38.496 184.557 38.808 184.413 39.192L183.069 42.924L181.677 39.18C181.521 38.748 181.257 38.496 180.801 38.496C180.297 38.496 179.901 38.856 179.901 39.372C179.901 39.492 179.949 39.672 179.997 39.792L182.193 44.88L182.133 45.024C181.965 45.348 181.809 45.408 181.485 45.408C181.353 45.408 181.257 45.384 181.101 45.336C181.029 45.312 180.945 45.288 180.801 45.288C180.429 45.288 180.081 45.588 180.081 46.032C180.081 46.476 180.393 46.692 180.657 46.788C180.957 46.896 181.245 46.956 181.653 46.956ZM185.345 46.536C185.345 46.752 185.477 46.944 185.801 46.944C186.245 46.944 186.785 46.728 187.145 46.368C187.589 45.924 187.853 45.276 187.853 44.4V44.352C187.853 43.524 187.457 43.008 186.785 43.008C186.185 43.008 185.789 43.428 185.789 43.992V44.016C185.789 44.532 186.209 44.892 186.629 45C186.653 45.576 186.317 45.996 185.705 46.14C185.501 46.188 185.345 46.32 185.345 46.536ZM192.248 44.16C192.248 44.664 192.656 45.072 193.16 45.072C193.664 45.072 194.072 44.664 194.072 44.16V37.08C194.072 36.576 193.664 36.168 193.16 36.168C192.656 36.168 192.248 36.576 192.248 37.08V44.16ZM196.862 41.28C197.006 40.452 197.498 39.912 198.254 39.912C199.022 39.912 199.502 40.464 199.61 41.28H196.862ZM200.666 44.364C200.798 44.244 200.906 44.064 200.906 43.824C200.906 43.416 200.606 43.104 200.198 43.104C200.006 43.104 199.886 43.152 199.754 43.248C199.382 43.524 198.962 43.68 198.458 43.68C197.642 43.68 197.066 43.248 196.886 42.42H200.498C200.978 42.42 201.35 42.072 201.35 41.544C201.35 40.212 200.402 38.448 198.254 38.448C196.382 38.448 195.074 39.96 195.074 41.796V41.82C195.074 43.788 196.502 45.144 198.434 45.144C199.37 45.144 200.102 44.844 200.666 44.364ZM204.169 45.12C205.057 45.12 205.669 44.796 206.113 44.304V44.316C206.113 44.7 206.461 45.072 206.989 45.072C207.481 45.072 207.877 44.688 207.877 44.196V41.268C207.877 40.404 207.661 39.696 207.181 39.216C206.725 38.76 206.005 38.496 205.009 38.496C204.157 38.496 203.533 38.616 202.957 38.832C202.669 38.94 202.465 39.216 202.465 39.54C202.465 39.96 202.801 40.284 203.221 40.284C203.305 40.284 203.377 40.272 203.485 40.236C203.833 40.128 204.241 40.056 204.745 40.056C205.657 40.056 206.125 40.476 206.125 41.232V41.34C205.669 41.184 205.201 41.076 204.553 41.076C203.029 41.076 201.961 41.724 201.961 43.128V43.152C201.961 44.424 202.957 45.12 204.169 45.12ZM204.721 43.86C204.133 43.86 203.725 43.572 203.725 43.08V43.056C203.725 42.48 204.205 42.168 204.985 42.168C205.429 42.168 205.837 42.264 206.149 42.408V42.732C206.149 43.392 205.573 43.86 204.721 43.86ZM209.046 44.16C209.046 44.664 209.454 45.072 209.958 45.072C210.462 45.072 210.87 44.664 210.87 44.16V42.456C210.87 41.16 211.386 40.452 212.31 40.236C212.682 40.152 212.994 39.864 212.994 39.384C212.994 38.868 212.67 38.496 212.106 38.496C211.566 38.496 211.134 39.072 210.87 39.696V39.408C210.87 38.904 210.462 38.496 209.958 38.496C209.454 38.496 209.046 38.904 209.046 39.408V44.16ZM213.662 44.16C213.662 44.664 214.07 45.072 214.574 45.072C215.078 45.072 215.486 44.664 215.486 44.16V41.412C215.486 40.548 215.93 40.104 216.626 40.104C217.322 40.104 217.73 40.548 217.73 41.412V44.16C217.73 44.664 218.138 45.072 218.642 45.072C219.146 45.072 219.554 44.664 219.554 44.16V40.836C219.554 39.36 218.75 38.448 217.37 38.448C216.446 38.448 215.906 38.94 215.486 39.48V39.408C215.486 38.904 215.078 38.496 214.574 38.496C214.07 38.496 213.662 38.904 213.662 39.408V44.16ZM224.248 44.16C224.248 44.664 224.656 45.072 225.16 45.072C225.664 45.072 226.072 44.664 226.072 44.16V40.128H226.84C227.26 40.128 227.596 39.804 227.596 39.384C227.596 38.964 227.26 38.64 226.84 38.64H226.048V38.388C226.048 37.908 226.288 37.692 226.708 37.692H226.864C227.272 37.692 227.608 37.344 227.608 36.936C227.608 36.528 227.296 36.252 226.984 36.204C226.78 36.168 226.528 36.156 226.24 36.156C225.592 36.156 225.1 36.324 224.764 36.66C224.428 36.996 224.248 37.512 224.248 38.22V38.628H224.176C223.756 38.628 223.42 38.964 223.42 39.384C223.42 39.804 223.756 40.128 224.176 40.128H224.248V44.16ZM231.157 45.144C233.161 45.144 234.649 43.644 234.649 41.796V41.772C234.649 39.924 233.173 38.448 231.181 38.448C229.177 38.448 227.689 39.948 227.689 41.796V41.82C227.689 43.668 229.165 45.144 231.157 45.144ZM231.181 43.572C230.173 43.572 229.489 42.744 229.489 41.796V41.772C229.489 40.824 230.113 40.02 231.157 40.02C232.165 40.02 232.849 40.848 232.849 41.796V41.82C232.849 42.768 232.225 43.572 231.181 43.572ZM235.57 44.16C235.57 44.664 235.978 45.072 236.482 45.072C236.986 45.072 237.394 44.664 237.394 44.16V42.456C237.394 41.16 237.91 40.452 238.834 40.236C239.206 40.152 239.518 39.864 239.518 39.384C239.518 38.868 239.194 38.496 238.63 38.496C238.09 38.496 237.658 39.072 237.394 39.696V39.408C237.394 38.904 236.986 38.496 236.482 38.496C235.978 38.496 235.57 38.904 235.57 39.408V44.16ZM243.467 44.16C243.467 44.664 243.875 45.072 244.379 45.072C244.883 45.072 245.291 44.664 245.291 44.16V37.08C245.291 36.576 244.883 36.168 244.379 36.168C243.875 36.168 243.467 36.576 243.467 37.08V44.16ZM246.58 37.056C246.58 37.584 247.024 37.92 247.6 37.92C248.176 37.92 248.62 37.584 248.62 37.056V37.032C248.62 36.504 248.176 36.18 247.6 36.18C247.024 36.18 246.58 36.504 246.58 37.032V37.056ZM246.688 44.16C246.688 44.664 247.096 45.072 247.6 45.072C248.104 45.072 248.512 44.664 248.512 44.16V39.408C248.512 38.904 248.104 38.496 247.6 38.496C247.096 38.496 246.688 38.904 246.688 39.408V44.16ZM250.137 44.16C250.137 44.664 250.545 45.072 251.049 45.072C251.553 45.072 251.961 44.664 251.961 44.16V40.128H252.729C253.149 40.128 253.485 39.804 253.485 39.384C253.485 38.964 253.149 38.64 252.729 38.64H251.937V38.388C251.937 37.908 252.177 37.692 252.597 37.692H252.753C253.161 37.692 253.497 37.344 253.497 36.936C253.497 36.528 253.185 36.252 252.873 36.204C252.669 36.168 252.417 36.156 252.129 36.156C251.481 36.156 250.989 36.324 250.653 36.66C250.317 36.996 250.137 37.512 250.137 38.22V38.628H250.065C249.645 38.628 249.309 38.964 249.309 39.384C249.309 39.804 249.645 40.128 250.065 40.128H250.137V44.16ZM255.366 41.28C255.51 40.452 256.002 39.912 256.758 39.912C257.526 39.912 258.006 40.464 258.114 41.28H255.366ZM259.17 44.364C259.302 44.244 259.41 44.064 259.41 43.824C259.41 43.416 259.11 43.104 258.702 43.104C258.51 43.104 258.39 43.152 258.258 43.248C257.886 43.524 257.466 43.68 256.962 43.68C256.146 43.68 255.57 43.248 255.39 42.42H259.002C259.482 42.42 259.854 42.072 259.854 41.544C259.854 40.212 258.906 38.448 256.758 38.448C254.886 38.448 253.578 39.96 253.578 41.796V41.82C253.578 43.788 255.006 45.144 256.938 45.144C257.874 45.144 258.606 44.844 259.17 44.364Z" fill="#00CDC4"/>
</svg>
